<svg width="11" height="3" viewBox="0 0 11 3" fill="none" xmlns="http://www.w3.org/2000/svg">
<path d="M1.06676 2.08523C0.803977 2.08523 0.57848 1.99112 0.39027 1.80291C0.20206 1.6147 0.107955 1.3892 0.107955 1.12642C0.107955 0.863636 0.20206 0.638139 0.39027 0.449929C0.57848 0.261719 0.803977 0.167614 1.06676 0.167614C1.32955 0.167614 1.55504 0.261719 1.74325 0.449929C1.93146 0.638139 2.02557 0.863636 2.02557 1.12642C2.02557 1.30043 1.98118 1.46023 1.8924 1.60582C1.80717 1.75142 1.69176 1.86861 1.54616 1.95739C1.40412 2.04261 1.24432 2.08523 1.06676 2.08523ZM5.19762 2.08523C4.93484 2.08523 4.70934 1.99112 4.52113 1.80291C4.33292 1.6147 4.23881 1.3892 4.23881 1.12642C4.23881 0.863636 4.33292 0.638139 4.52113 0.449929C4.70934 0.261719 4.93484 0.167614 5.19762 0.167614C5.4604 0.167614 5.6859 0.261719 5.87411 0.449929C6.06232 0.638139 6.15643 0.863636 6.15643 1.12642C6.15643 1.30043 6.11204 1.46023 6.02326 1.60582C5.93803 1.75142 5.82262 1.86861 5.67702 1.95739C5.53498 2.04261 5.37518 2.08523 5.19762 2.08523ZM9.32848 2.08523C9.0657 2.08523 8.8402 1.99112 8.65199 1.80291C8.46378 1.6147 8.36967 1.3892 8.36967 1.12642C8.36967 0.863636 8.46378 0.638139 8.65199 0.449929C8.8402 0.261719 9.0657 0.167614 9.32848 0.167614C9.59126 0.167614 9.81676 0.261719 10.005 0.449929C10.1932 0.638139 10.2873 0.863636 10.2873 1.12642C10.2873 1.30043 10.2429 1.46023 10.1541 1.60582C10.0689 1.75142 9.95348 1.86861 9.80788 1.95739C9.66584 2.04261 9.50604 2.08523 9.32848 2.08523Z" fill="black"/>
</svg>
