<svg width="11" height="10" viewBox="0 0 11 10" fill="none" xmlns="http://www.w3.org/2000/svg">
<path d="M4.10786 0.213545C4.11749 0.00164161 4.46617 -0.0831173 4.5702 0.101817C5.0595 0.968696 5.89171 2.24204 6.83564 2.82189C7.77958 3.39981 9.29373 3.56548 10.2877 3.60786C10.4997 3.61749 10.5825 3.96617 10.3976 4.0702C9.53067 4.5595 8.25925 5.39171 7.6794 6.33564C7.09956 7.27958 6.93581 8.79373 6.89343 9.78775C6.8838 9.99965 6.5332 10.0825 6.4311 9.89755C5.94179 9.03067 5.10959 7.75925 4.16373 7.17941C3.21979 6.59956 1.70564 6.43581 0.713548 6.39343C0.501644 6.3838 0.416881 6.0332 0.601816 5.9311C1.4687 5.44179 2.74205 4.60959 3.32189 3.66373C3.89981 2.71979 4.06548 1.20564 4.10786 0.213545Z" fill="#765579"/>
</svg>
